<?xml version="1.0" standalone="no"?>
<svg xmlns="http://www.w3.org/2000/svg" xmlns:xlink="http://www.w3.org/1999/xlink" width="766pt" height="753pt" viewBox="0.00 0.00 766.00 752.60">
<g id="graph0" class="graph" transform="translate(27.358887589888695,680.8051016794072) scale(0.8705505632961267)" data-name="a-fib.c.015t.cfg">

<polygon fill="white" stroke="none" points="-4,4 -4,-748.6 762,-748.6 762,4 -4,4" style=""/>
<g id="clust1" class="cluster" data-name="cluster_main">

<polygon fill="none" stroke="black" stroke-dasharray="5,2" points="8,-8 8,-736.6 348,-736.6 348,-8 8,-8" style=""/>
<text text-anchor="middle" x="178" y="-720" font-family="Times,serif" font-size="14.00" style="">main ()</text>
</g>
<g id="clust2" class="cluster" data-name="cluster_23_1">

<polygon fill="#e0e0e0" stroke="darkgreen" stroke-width="2" points="190,-80 190,-432.4 340,-432.4 340,-80 190,-80" style=""/>
<text text-anchor="middle" x="215.69" y="-415.8" font-family="Times,serif" font-size="14.00" style="">loop 1</text>
</g>
<g id="clust3" class="cluster" data-name="cluster_printf">

<polygon fill="none" stroke="black" stroke-dasharray="5,2" points="356,-310.7 356,-736.6 750,-736.6 750,-310.7 356,-310.7" style=""/>
<text text-anchor="middle" x="553" y="-720" font-family="Times,serif" font-size="14.00" style="">printf ()</text>
</g>
<!-- fn_23_basic_block_4 -->
<g id="node1" class="node" pointer-events="visible" data-name="fn_23_basic_block_4">

<polygon fill="lightgrey" stroke="black" points="198.36,-274.3 198.36,-399.1 331.64,-399.1 331.64,-274.3 198.36,-274.3" style=""/>
<text text-anchor="start" x="206.36" y="-382.5" font-family="Times,serif" font-size="14.00" style="">&lt;bb 4&gt;:</text>
<polyline fill="none" stroke="black" points="198.36,-374.3 331.64,-374.3" style=""/>
<text text-anchor="start" x="206.36" y="-357.7" font-family="Times,serif" font-size="14.00" style="">n.0_1 = n;</text>
<polyline fill="none" stroke="black" points="198.36,-349.5 331.64,-349.5" style=""/>
<text text-anchor="start" x="206.36" y="-332.9" font-family="Times,serif" font-size="14.00" style="">if (i &lt; n.0_1)</text>
<text text-anchor="start" x="206.36" y="-316.1" font-family="Times,serif" font-size="14.00" style="">  goto &lt;bb 3&gt;; [INV]</text>
<text text-anchor="start" x="206.36" y="-299.3" font-family="Times,serif" font-size="14.00" style="">else</text>
<text text-anchor="start" x="206.36" y="-282.5" font-family="Times,serif" font-size="14.00" style="">  goto &lt;bb 5&gt;; [INV]</text>
</g>
<!-- fn_23_basic_block_3 -->
<g id="node2" class="node" pointer-events="visible" data-name="fn_23_basic_block_3">

<polygon fill="lightgrey" stroke="black" points="205.6,-88.5 205.6,-237.3 324.4,-237.3 324.4,-88.5 205.6,-88.5" style=""/>
<text text-anchor="start" x="213.6" y="-220.7" font-family="Times,serif" font-size="14.00" style="">&lt;bb 3&gt;:</text>
<polyline fill="none" stroke="black" points="205.6,-212.5 324.4,-212.5" style=""/>
<text text-anchor="start" x="213.6" y="-195.9" font-family="Times,serif" font-size="14.00" style="">t = b;</text>
<polyline fill="none" stroke="black" points="205.6,-187.7 324.4,-187.7" style=""/>
<text text-anchor="start" x="213.6" y="-171.1" font-family="Times,serif" font-size="14.00" style="">b = a + b;</text>
<polyline fill="none" stroke="black" points="205.6,-162.9 324.4,-162.9" style=""/>
<text text-anchor="start" x="213.6" y="-146.3" font-family="Times,serif" font-size="14.00" style="">printf ("%d\n", b);</text>
<polyline fill="none" stroke="black" points="205.6,-138.1 324.4,-138.1" style=""/>
<text text-anchor="start" x="213.6" y="-121.5" font-family="Times,serif" font-size="14.00" style="">a = t;</text>
<polyline fill="none" stroke="black" points="205.6,-113.3 324.4,-113.3" style=""/>
<text text-anchor="start" x="213.6" y="-96.7" font-family="Times,serif" font-size="14.00" style="">i = i + 1;</text>
</g>
<!-- fn_23_basic_block_4&#45;&gt;fn_23_basic_block_3 -->
<g id="edge4" class="edge" data-name="fn_23_basic_block_4-&gt;fn_23_basic_block_3">

<path fill="none" stroke="forestgreen" stroke-width="2" d="M265,-273.8C265,-262.43 265,-257.12 265,-249.25" style=""/>
<polygon fill="forestgreen" stroke="forestgreen" stroke-width="2" points="268.5,-250.83 265,-240.83 261.5,-250.83 268.5,-250.83" style=""/>
</g>
<!-- fn_23_basic_block_5 -->
<g id="node6" class="node" pointer-events="visible" data-name="fn_23_basic_block_5">

<polygon fill="lightgrey" stroke="black" points="35.89,-113.3 35.89,-212.5 182.11,-212.5 182.11,-113.3 35.89,-113.3" style=""/>
<text text-anchor="start" x="43.89" y="-195.9" font-family="Times,serif" font-size="14.00" style="">&lt;bb 5&gt;:</text>
<polyline fill="none" stroke="black" points="35.89,-187.7 182.11,-187.7" style=""/>
<text text-anchor="start" x="43.89" y="-171.1" font-family="Times,serif" font-size="14.00" style="">D.5038 = 0;</text>
<polyline fill="none" stroke="black" points="35.89,-162.9 182.11,-162.9" style=""/>
<text text-anchor="start" x="43.89" y="-146.3" font-family="Times,serif" font-size="14.00" style="">n = {CLOBBER(eol)};</text>
<polyline fill="none" stroke="black" points="35.89,-138.1 182.11,-138.1" style=""/>
<text text-anchor="start" x="43.89" y="-121.5" font-family="Times,serif" font-size="14.00" style="">return D.5038;</text>
</g>
<!-- fn_23_basic_block_4&#45;&gt;fn_23_basic_block_5 -->
<g id="edge5" class="edge" data-name="fn_23_basic_block_4-&gt;fn_23_basic_block_5">

<path fill="none" stroke="darkorange" stroke-width="2" d="M265,-273.8C265,-203.74 126.17,-278.65 110.44,-225.01" style=""/>
<polygon fill="darkorange" stroke="darkorange" stroke-width="2" points="114.15,-226.37 109.39,-216.9 107.21,-227.27 114.15,-226.37" style=""/>
</g>
<!-- fn_23_basic_block_3&#45;&gt;fn_23_basic_block_4 -->
<g id="edge3" class="edge" data-name="fn_23_basic_block_3-&gt;fn_23_basic_block_4">

<path fill="none" stroke="blue" stroke-width="2" stroke-dasharray="1,5" d="M265,-87.9C265,-61.5 305.52,-70.44 324.4,-88.9 351.77,-115.67 358.1,-371.84 331.64,-398.7 323.76,-406.7 289.55,-411.65 273.45,-407.14" style=""/>
<polygon fill="blue" stroke="blue" stroke-width="2" points="277.09,-405.68 267.27,-401.7 272.46,-410.94 277.09,-405.68" style=""/>
</g>
<!-- fn_23_basic_block_0 -->
<g id="node3" class="node" pointer-events="visible" data-name="fn_23_basic_block_0">

<polygon fill="white" stroke="black" points="265,-703.8 203.75,-685.8 265,-667.8 326.25,-685.8 265,-703.8" style=""/>
<polyline fill="none" stroke="black" points="215.26,-689.18 215.26,-682.42" style=""/>
<polyline fill="none" stroke="black" points="253.49,-671.18 276.51,-671.18" style=""/>
<polyline fill="none" stroke="black" points="314.74,-682.42 314.74,-689.18" style=""/>
<polyline fill="none" stroke="black" points="276.51,-700.42 253.49,-700.42" style=""/>
<text text-anchor="middle" x="265" y="-681.6" font-family="Times,serif" font-size="14.00" style="">ENTRY</text>
</g>
<!-- fn_23_basic_block_1 -->
<g id="node4" class="node" pointer-events="visible" data-name="fn_23_basic_block_1">

<polygon fill="white" stroke="black" points="109,-52 62.09,-34 109,-16 155.91,-34 109,-52" style=""/>
<polyline fill="none" stroke="black" points="73.3,-38.3 73.3,-29.7" style=""/>
<polyline fill="none" stroke="black" points="97.8,-20.3 120.2,-20.3" style=""/>
<polyline fill="none" stroke="black" points="144.7,-29.7 144.7,-38.3" style=""/>
<polyline fill="none" stroke="black" points="120.2,-47.7 97.8,-47.7" style=""/>
<text text-anchor="middle" x="109" y="-29.8" font-family="Times,serif" font-size="14.00" style="">EXIT</text>
</g>
<!-- fn_23_basic_block_0&#45;&gt;fn_23_basic_block_1 -->
<!-- fn_23_basic_block_2 -->
<g id="node5" class="node" pointer-events="visible" data-name="fn_23_basic_block_2">

<polygon fill="lightgrey" stroke="black" points="201.86,-440.9 201.86,-631.3 328.14,-631.3 328.14,-440.9 201.86,-440.9" style=""/>
<text text-anchor="start" x="209.86" y="-614.7" font-family="Times,serif" font-size="14.00" style="">&lt;bb 2&gt;:</text>
<polyline fill="none" stroke="black" points="201.86,-606.5 328.14,-606.5" style=""/>
<text text-anchor="start" x="209.86" y="-589.9" font-family="Times,serif" font-size="14.00" style="">a = 0;</text>
<polyline fill="none" stroke="black" points="201.86,-581.7 328.14,-581.7" style=""/>
<text text-anchor="start" x="209.86" y="-565.1" font-family="Times,serif" font-size="14.00" style="">b = 1;</text>
<polyline fill="none" stroke="black" points="201.86,-556.9 328.14,-556.9" style=""/>
<text text-anchor="start" x="209.86" y="-540.3" font-family="Times,serif" font-size="14.00" style="">i = 1;</text>
<polyline fill="none" stroke="black" points="201.86,-532.1 328.14,-532.1" style=""/>
<text text-anchor="start" x="209.86" y="-515.5" font-family="Times,serif" font-size="14.00" style="">scanf ("%d", &amp;n);</text>
<polyline fill="none" stroke="black" points="201.86,-507.3 328.14,-507.3" style=""/>
<text text-anchor="start" x="209.86" y="-490.7" font-family="Times,serif" font-size="14.00" style="">printf ("%d\n", a);</text>
<polyline fill="none" stroke="black" points="201.86,-482.5 328.14,-482.5" style=""/>
<text text-anchor="start" x="209.86" y="-465.9" font-family="Times,serif" font-size="14.00" style="">printf ("%d\n", b);</text>
<text text-anchor="start" x="209.86" y="-449.1" font-family="Times,serif" font-size="14.00" style="">goto &lt;bb 4&gt;; [INV]</text>
</g>
<!-- fn_23_basic_block_0&#45;&gt;fn_23_basic_block_2 -->
<g id="edge1" class="edge" data-name="fn_23_basic_block_0-&gt;fn_23_basic_block_2">

<path fill="none" stroke="black" stroke-width="2" d="M265,-667.8C265,-656.42 265,-651.12 265,-643.25" style=""/>
<polygon fill="black" stroke="black" stroke-width="2" points="268.5,-644.83 265,-634.83 261.5,-644.83 268.5,-644.83" style=""/>
</g>
<!-- fn_23_basic_block_2&#45;&gt;fn_23_basic_block_4 -->
<g id="edge2" class="edge" data-name="fn_23_basic_block_2-&gt;fn_23_basic_block_4">

<path fill="none" stroke="black" stroke-width="2" d="M265,-440.4C265,-426.83 265,-420.9 265,-411.15" style=""/>
<polygon fill="black" stroke="black" stroke-width="2" points="268.5,-412.73 265,-402.73 261.5,-412.73 268.5,-412.73" style=""/>
</g>
<!-- fn_23_basic_block_5&#45;&gt;fn_23_basic_block_1 -->
<g id="edge6" class="edge" data-name="fn_23_basic_block_5-&gt;fn_23_basic_block_1">

<path fill="none" stroke="black" stroke-width="2" d="M109,-111.9C109,-89.44 109,-81.19 109,-63.17" style=""/>
<polygon fill="black" stroke="black" stroke-width="2" points="112.5,-65.03 109,-55.03 105.5,-65.03 112.5,-65.03" style=""/>
</g>
<!-- fn_15_basic_block_0 -->
<g id="node7" class="node" pointer-events="visible" data-name="fn_15_basic_block_0">

<polygon fill="white" stroke="black" points="563,-703.8 501.75,-685.8 563,-667.8 624.25,-685.8 563,-703.8" style=""/>
<polyline fill="none" stroke="black" points="513.26,-689.18 513.26,-682.42" style=""/>
<polyline fill="none" stroke="black" points="551.49,-671.18 574.51,-671.18" style=""/>
<polyline fill="none" stroke="black" points="612.74,-682.42 612.74,-689.18" style=""/>
<polyline fill="none" stroke="black" points="574.51,-700.42 551.49,-700.42" style=""/>
<text text-anchor="middle" x="563" y="-681.6" font-family="Times,serif" font-size="14.00" style="">ENTRY</text>
</g>
<!-- fn_15_basic_block_1 -->
<g id="node8" class="node" pointer-events="visible" data-name="fn_15_basic_block_1">

<polygon fill="white" stroke="black" points="563,-354.7 516.09,-336.7 563,-318.7 609.91,-336.7 563,-354.7" style=""/>
<polyline fill="none" stroke="black" points="527.3,-341 527.3,-332.4" style=""/>
<polyline fill="none" stroke="black" points="551.8,-323 574.2,-323" style=""/>
<polyline fill="none" stroke="black" points="598.7,-332.4 598.7,-341" style=""/>
<polyline fill="none" stroke="black" points="574.2,-350.4 551.8,-350.4" style=""/>
<text text-anchor="middle" x="563" y="-332.5" font-family="Times,serif" font-size="14.00" style="">EXIT</text>
</g>
<!-- fn_15_basic_block_0&#45;&gt;fn_15_basic_block_1 -->
<!-- fn_15_basic_block_2 -->
<g id="node9" class="node" pointer-events="visible" data-name="fn_15_basic_block_2">

<polygon fill="lightgrey" stroke="black" points="384.06,-498.9 384.06,-573.3 741.94,-573.3 741.94,-498.9 384.06,-498.9" style=""/>
<text text-anchor="start" x="392.06" y="-556.7" font-family="Times,serif" font-size="14.00" style="">&lt;bb 2&gt;:</text>
<polyline fill="none" stroke="black" points="384.06,-548.5 741.94,-548.5" style=""/>
<text text-anchor="start" x="392.06" y="-531.9" font-family="Times,serif" font-size="14.00" style="">D.5041 = __printf_chk (2, __fmt, __builtin_va_arg_pack ());</text>
<polyline fill="none" stroke="black" points="384.06,-523.7 741.94,-523.7" style=""/>
<text text-anchor="start" x="392.06" y="-507.1" font-family="Times,serif" font-size="14.00" style="">return D.5041;</text>
</g>
<!-- fn_15_basic_block_0&#45;&gt;fn_15_basic_block_2 -->
<g id="edge8" class="edge" data-name="fn_15_basic_block_0-&gt;fn_15_basic_block_2">

<path fill="none" stroke="black" stroke-width="2" d="M563,-667.8C563,-630.22 563,-618.08 563,-585.47" style=""/>
<polygon fill="black" stroke="black" stroke-width="2" points="566.5,-587.13 563,-577.13 559.5,-587.13 566.5,-587.13" style=""/>
</g>
<!-- fn_15_basic_block_2&#45;&gt;fn_15_basic_block_1 -->
<g id="edge9" class="edge" data-name="fn_15_basic_block_2-&gt;fn_15_basic_block_1">

<path fill="none" stroke="black" stroke-width="2" d="M563,-498.1C563,-438.77 563,-421.15 563,-367.03" style=""/>
<polygon fill="black" stroke="black" stroke-width="2" points="566.5,-368.73 563,-358.73 559.5,-368.73 566.5,-368.73" style=""/>
</g>
</g>
</svg>